<?xml version="1.0" encoding="utf-8"?>
<!-- Generator: Adobe Illustrator 19.2.1, SVG Export Plug-In . SVG Version: 6.00 Build 0)  -->
<svg version="1.1" id="Glyph" xmlns="http://www.w3.org/2000/svg" xmlns:xlink="http://www.w3.org/1999/xlink" x="0px" y="0px"
	 viewBox="0 0 32 32" enable-background="new 0 0 32 32" xml:space="preserve">
<path id="XMLID_502_" d="M27.676,20.964C27.881,20.026,28,19.039,28,18c0-1.742-0.303-3.353-0.861-4.794
	c1.765-3.327,2.682-5.925,2.858-8.127c0.022-0.278-0.073-0.553-0.262-0.758C29.545,4.117,29.279,4,29,4
	c-2.558,0-5.017,1.049-7.498,3.174C19.887,6.421,18.036,6,16,6c-2.036,0-3.887,0.421-5.502,1.174C8.018,5.049,5.559,4,3,4
	C2.721,4,2.455,4.117,2.265,4.322C2.076,4.526,1.981,4.801,2.003,5.08c0.176,2.201,1.093,4.799,2.858,8.127
	C4.303,14.647,4,16.258,4,18c0,1.039,0.119,2.026,0.324,2.964c-0.632,0.326-1.244,0.734-1.917,1.231
	c-0.444,0.328-0.539,0.954-0.211,1.398C2.392,23.859,2.694,24,3.001,24c0.206,0,0.414-0.063,0.593-0.195
	c0.475-0.351,0.9-0.637,1.319-0.879c0.25,0.624,0.554,1.212,0.899,1.767c-0.729,0.292-1.5,0.746-2.452,1.539
	c-0.424,0.354-0.481,0.984-0.128,1.409C3.43,27.878,3.714,28,4,28c0.226,0,0.453-0.076,0.64-0.231
	c1.006-0.838,1.69-1.192,2.455-1.402C9.223,28.65,12.317,30,16,30s6.777-1.35,8.905-3.634c0.766,0.21,1.449,0.564,2.455,1.402
	C27.547,27.924,27.774,28,28,28c0.287,0,0.571-0.122,0.769-0.359c0.354-0.425,0.296-1.055-0.128-1.409
	c-0.952-0.794-1.723-1.247-2.452-1.539c0.345-0.555,0.649-1.142,0.899-1.767c0.419,0.242,0.844,0.528,1.319,0.879
	C28.585,23.937,28.793,24,28.999,24c0.307,0,0.609-0.141,0.806-0.406c0.328-0.444,0.233-1.07-0.211-1.398
	C28.92,21.698,28.309,21.291,27.676,20.964z M11,18c-1.103,0-2-0.897-2-2c0-1.103,0.897-2,2-2s2,0.897,2,2
	C13,17.103,12.103,18,11,18z M17.8,20.229l-1.569,1.669c-0.128,0.136-0.336,0.136-0.464,0L14.2,20.229
	C13.773,19.776,14.075,19,14.678,19h2.644C17.925,19,18.227,19.776,17.8,20.229z M21,18c-1.103,0-2-0.897-2-2c0-1.103,0.897-2,2-2
	s2,0.897,2,2C23,17.103,22.103,18,21,18z"/>
</svg>
